<?xml version="1.0" encoding="UTF-8"?>
<svg width="1440" height="800" viewBox="0 0 1440 800" fill="none" xmlns="http://www.w3.org/2000/svg">
    <path d="M0 0h1440v800H0z" fill="#f8fafc"/>
    <g opacity=".5">
        <path d="M642 219c0 33.137-26.863 60-60 60s-60-26.863-60-60 26.863-60 60-60 60 26.863 60 60zM1014 219c0 33.137-26.86 60-60 60s-60-26.863-60-60 26.86-60 60-60 60 26.863 60 60zM642 591c0 33.137-26.863 60-60 60s-60-26.863-60-60 26.863-60 60-60 60 26.863 60 60zM1014 591c0 33.137-26.86 60-60 60s-60-26.863-60-60 26.86-60 60-60 60 26.863 60 60z" stroke="#e2e8f0"/>
    </g>
</svg>
